<svg width="53" height="53" viewBox="0 0 53 53" fill="none" xmlns="http://www.w3.org/2000/svg">
<rect width="53" height="53" rx="26.5" fill="white"/>
<rect x="4" y="4" width="45" height="45" rx="22.5" fill="#FAA332"/>
<path d="M26.4989 20.94V24.27M26.5189 16.5C22.8389 16.5 19.8589 19.48 19.8589 23.16V25.26C19.8589 25.94 19.5789 26.96 19.2289 27.54L17.9589 29.66C17.1789 30.97 17.7189 32.43 19.1589 32.91C23.9402 34.5 29.1076 34.5 33.8889 32.91C34.2044 32.8048 34.4922 32.63 34.7311 32.3986C34.97 32.1671 35.1538 31.885 35.269 31.573C35.3842 31.261 35.4278 30.9271 35.3967 30.596C35.3655 30.2649 35.2603 29.945 35.0889 29.66L33.8189 27.54C33.4689 26.96 33.1889 25.93 33.1889 25.26V23.16C33.1789 19.5 30.1789 16.5 26.5189 16.5Z" stroke="white" stroke-width="1.5" stroke-miterlimit="10" stroke-linecap="round"/>
<path d="M29.8319 33.3199C29.8319 35.1499 28.3319 36.6499 26.5019 36.6499C25.5919 36.6499 24.7519 36.2699 24.1519 35.6699C23.5519 35.0699 23.1719 34.2299 23.1719 33.3199" stroke="white" stroke-width="1.5" stroke-miterlimit="10"/>
</svg>
